<?xml version="1.0" encoding="UTF-8" ?>
<!DOCTYPE svg PUBLIC "-//W3C//DTD SVG 1.1//EN" "http://www.w3.org/Graphics/SVG/1.1/DTD/svg11.dtd">
<svg id="svg6930" viewBox="0 0 363 363" version="1.1" xmlns="http://www.w3.org/2000/svg">
<path fill="#adccfd" d=" M 0.00 0.00 L 61.36 0.00 C 59.08 1.23 55.83 2.56 57.07 5.81 C 77.56 11.25 99.12 6.13 119.97 7.08 C 135.08 10.87 151.38 11.25 166.16 7.17 C 161.87 4.90 156.73 3.88 153.51 0.00 L 269.50 0.00 C 258.89 9.25 244.33 6.35 231.53 8.45 C 217.09 11.73 201.77 12.29 187.77 16.72 C 207.88 18.92 228.11 19.86 248.25 21.77 C 247.81 21.90 246.91 22.16 246.47 22.29 C 201.99 24.11 157.39 23.03 112.97 20.22 C 105.88 19.55 98.82 20.46 91.75 20.91 C 102.89 15.04 116.19 18.62 128.22 16.90 C 127.16 12.58 122.38 11.26 118.57 10.49 C 104.16 8.66 89.73 12.18 75.31 10.72 C 50.26 8.39 25.16 7.37 0.00 8.00 L 0.00 0.00 Z" />
<path fill="#b7d2fe" d=" M 61.36 0.00 L 153.51 0.00 C 156.73 3.88 161.87 4.90 166.16 7.17 C 151.38 11.25 135.08 10.87 119.97 7.08 C 99.12 6.13 77.56 11.25 57.07 5.81 C 55.83 2.56 59.08 1.23 61.36 0.00 Z" />
<path fill="#9fc6fd" d=" M 269.50 0.00 L 363.00 0.00 L 363.00 19.90 C 353.77 18.04 344.48 20.44 335.20 20.17 C 321.31 19.62 307.29 21.02 293.53 18.56 C 288.25 16.71 283.22 19.20 278.78 21.75 C 269.15 26.11 258.21 23.71 248.25 21.77 C 228.11 19.86 207.88 18.92 187.77 16.72 C 201.77 12.29 217.09 11.73 231.53 8.45 C 244.33 6.35 258.89 9.25 269.50 0.00 Z" />
<path fill="#a7c3fa" d=" M 0.00 8.00 C 25.16 7.37 50.26 8.39 75.31 10.72 C 89.73 12.18 104.16 8.66 118.57 10.49 C 122.38 11.26 127.16 12.58 128.22 16.90 C 116.19 18.62 102.89 15.04 91.75 20.91 C 91.12 21.00 89.85 21.17 89.21 21.25 C 59.52 19.34 29.73 20.05 0.00 19.00 L 0.00 8.00 Z" />
<path fill="#bcd6fd" d=" M 278.78 21.75 C 283.22 19.20 288.25 16.71 293.53 18.56 C 307.29 21.02 321.31 19.62 335.20 20.17 C 330.82 20.94 326.54 22.07 322.28 23.32 C 307.77 22.88 293.24 23.29 278.78 21.75 Z" />
<path fill="#b7ccfc" d=" M 0.00 19.00 C 29.73 20.05 59.52 19.34 89.21 21.25 C 73.76 22.75 58.22 22.23 42.73 22.27 C 28.52 23.93 14.24 21.91 0.00 23.07 L 0.00 19.00 Z" />
<path fill="#deeefd" d=" M 335.20 20.17 C 344.48 20.44 353.77 18.04 363.00 19.90 L 363.00 38.82 C 355.33 37.44 352.57 45.92 346.66 48.78 C 342.59 49.62 338.68 48.27 334.80 47.38 C 346.78 47.24 351.22 34.17 355.88 25.18 C 348.27 16.85 338.07 24.62 329.36 26.42 C 324.26 28.04 317.66 31.01 317.05 36.91 C 318.56 43.45 326.72 43.21 331.32 46.73 C 314.94 45.89 298.11 46.77 282.08 42.94 C 277.64 42.21 281.88 37.75 283.97 36.96 C 290.03 35.25 285.34 23.53 293.99 27.02 C 303.57 27.61 313.20 26.54 322.28 23.32 C 326.54 22.07 330.82 20.94 335.20 20.17 Z" />
<path fill="#c4d9fd" d=" M 91.75 20.91 C 98.82 20.46 105.88 19.55 112.97 20.22 C 157.39 23.03 201.99 24.11 246.47 22.29 C 245.50 23.74 244.45 25.25 242.64 25.65 C 228.97 28.52 214.30 26.41 201.30 32.28 C 193.15 36.35 182.83 35.87 175.60 41.50 C 169.70 42.92 164.28 46.10 158.06 46.10 C 156.56 46.04 156.44 48.00 155.88 48.98 C 155.22 50.66 154.67 52.38 154.06 54.07 C 151.31 54.15 148.63 53.53 146.20 52.25 C 144.11 49.45 141.11 46.69 137.11 48.05 C 130.64 49.32 127.82 58.45 120.14 55.80 C 93.75 50.60 67.04 58.04 40.53 54.61 C 27.10 52.45 13.50 52.96 0.00 54.09 L 0.00 48.00 C 29.31 46.72 58.44 52.50 87.66 50.61 C 98.41 44.39 109.82 51.83 120.99 52.04 C 123.45 52.16 127.10 49.54 125.06 46.98 C 122.20 42.95 117.37 40.49 115.04 36.00 C 113.59 32.82 115.18 28.26 111.68 26.22 C 100.81 25.55 89.50 26.53 79.00 23.24 C 67.36 24.14 55.59 24.63 43.97 23.10 C 43.66 22.89 43.04 22.48 42.73 22.27 C 58.22 22.23 73.76 22.75 89.21 21.25 C 89.85 21.17 91.12 21.00 91.75 20.91 Z" />
<path fill="#f3fafd" d=" M 329.36 26.42 C 338.07 24.62 348.27 16.85 355.88 25.18 C 351.22 34.17 346.78 47.24 334.80 47.38 C 333.63 47.16 332.48 46.95 331.32 46.73 C 326.72 43.21 318.56 43.45 317.05 36.91 C 317.66 31.01 324.26 28.04 329.36 26.42 Z" />
<path fill="#dde5fd" d=" M 0.00 23.07 C 14.24 21.91 28.52 23.93 42.73 22.27 C 43.04 22.48 43.66 22.89 43.97 23.10 C 49.12 27.43 56.16 26.98 62.22 29.08 C 61.31 31.75 56.61 34.95 60.68 37.32 C 66.40 43.97 75.77 41.19 83.39 41.63 C 92.13 43.39 94.82 32.28 102.08 30.02 C 107.67 30.51 113.70 37.53 110.75 42.80 C 102.94 42.84 94.81 42.07 88.45 47.38 C 59.13 51.51 29.54 43.52 0.00 46.01 L 0.00 23.07 Z" />
<path fill="#cee1fd" d=" M 246.47 22.29 C 246.91 22.16 247.81 21.90 248.25 21.77 C 258.21 23.71 269.15 26.11 278.78 21.75 C 293.24 23.29 307.77 22.88 322.28 23.32 C 313.20 26.54 303.57 27.61 293.99 27.02 C 285.34 23.53 290.03 35.25 283.97 36.96 C 281.88 37.75 277.64 42.21 282.08 42.94 C 298.11 46.77 314.94 45.89 331.32 46.73 C 332.48 46.95 333.63 47.16 334.80 47.38 C 338.68 48.27 342.59 49.62 346.66 48.78 C 352.57 45.92 355.33 37.44 363.00 38.82 L 363.00 46.68 C 358.10 50.11 353.76 56.03 346.98 54.90 C 315.21 51.58 283.25 50.40 251.53 46.58 C 235.35 45.59 218.63 39.78 203.01 46.99 C 193.91 44.96 184.77 43.16 175.60 41.50 C 182.83 35.87 193.15 36.35 201.30 32.28 C 214.30 26.41 228.97 28.52 242.64 25.65 C 244.45 25.25 245.50 23.74 246.47 22.29 Z" />
<path fill="#cfdffd" d=" M 43.97 23.10 C 55.59 24.63 67.36 24.14 79.00 23.24 C 89.50 26.53 100.81 25.55 111.68 26.22 C 115.18 28.26 113.59 32.82 115.04 36.00 C 117.37 40.49 122.20 42.95 125.06 46.98 C 127.10 49.54 123.45 52.16 120.99 52.04 C 109.82 51.83 98.41 44.39 87.66 50.61 C 58.44 52.50 29.31 46.72 0.00 48.00 L 0.00 46.01 C 29.54 43.52 59.13 51.51 88.45 47.38 C 94.81 42.07 102.94 42.84 110.75 42.80 C 113.70 37.53 107.67 30.51 102.08 30.02 C 94.82 32.28 92.13 43.39 83.39 41.63 C 75.77 41.19 66.40 43.97 60.68 37.32 C 56.61 34.95 61.31 31.75 62.22 29.08 C 56.16 26.98 49.12 27.43 43.97 23.10 Z" />
<path fill="#cfcce5" d=" M 158.06 46.10 C 164.28 46.10 169.70 42.92 175.60 41.50 C 184.77 43.16 193.91 44.96 203.01 46.99 C 203.44 47.90 203.87 48.80 204.31 49.70 C 199.19 47.24 193.39 46.86 187.79 47.04 C 184.23 47.04 180.73 47.50 177.24 48.16 C 170.10 47.91 162.98 48.30 155.88 48.98 C 156.44 48.00 156.56 46.04 158.06 46.10 Z" />
<path fill="#bad7fa" d=" M 203.01 46.99 C 218.63 39.78 235.35 45.59 251.53 46.58 C 283.25 50.40 315.21 51.58 346.98 54.90 C 353.76 56.03 358.10 50.11 363.00 46.68 L 363.00 63.99 C 349.21 61.67 335.18 60.49 321.20 61.20 C 314.84 62.72 310.35 57.95 304.89 56.07 C 301.19 56.30 297.76 58.20 293.97 58.00 C 285.96 58.68 277.63 52.46 270.09 57.15 C 267.18 59.31 260.57 63.92 259.30 57.81 C 258.34 51.47 252.55 55.98 249.07 57.06 C 240.55 47.04 226.06 48.16 214.30 50.27 C 206.94 56.43 222.89 60.93 225.16 65.98 C 214.37 66.51 210.46 56.22 204.31 49.70 C 203.87 48.80 203.44 47.90 203.01 46.99 Z" />
<path fill="#c8867a" d=" M 177.24 48.16 C 180.73 47.50 184.23 47.04 187.79 47.04 C 190.73 49.95 194.35 51.94 198.01 53.79 C 195.77 54.61 193.64 55.70 191.55 56.85 C 187.74 56.58 181.55 56.69 179.99 61.09 C 179.11 65.24 184.81 64.22 187.11 66.15 C 186.78 68.13 185.11 69.41 183.89 70.85 C 179.81 70.14 176.61 72.14 173.66 74.47 C 169.34 74.87 171.62 69.07 170.81 66.22 C 166.18 62.68 157.34 63.61 155.84 70.01 C 159.71 69.95 163.45 68.91 167.25 68.31 C 164.24 74.26 163.68 85.19 154.85 83.96 C 154.86 79.21 170.24 71.65 157.00 73.09 C 150.18 75.29 144.09 81.23 145.93 88.98 C 148.41 87.77 150.75 86.31 153.22 85.08 C 151.68 93.06 139.73 90.71 137.99 97.82 C 142.94 102.09 149.57 98.27 155.19 97.88 C 153.20 101.78 147.62 101.67 143.76 102.12 C 140.36 101.82 137.51 103.98 134.68 105.52 L 133.95 105.87 C 136.25 98.59 127.60 97.85 124.66 92.95 C 127.09 88.87 130.12 84.67 135.05 87.66 C 141.71 82.61 148.26 75.76 153.57 68.76 C 151.88 65.62 149.86 62.65 148.71 59.25 L 149.59 59.10 C 151.88 66.49 162.69 62.64 163.43 56.13 C 167.93 53.29 172.58 50.71 177.24 48.16 Z" />
<path fill="#c2a0ad" d=" M 187.79 47.04 C 193.39 46.86 199.19 47.24 204.31 49.70 C 210.46 56.22 214.37 66.51 225.16 65.98 C 226.72 66.77 228.31 67.49 229.96 68.10 C 229.96 70.10 229.93 72.09 229.92 74.09 C 220.13 68.83 207.49 67.01 201.23 56.83 C 200.29 55.69 199.28 54.57 198.01 53.79 C 194.35 51.94 190.73 49.95 187.79 47.04 Z" />
<path fill="#b4d1fa" d=" M 120.14 55.80 C 127.82 58.45 130.64 49.32 137.11 48.05 C 141.11 46.69 144.11 49.45 146.20 52.25 C 144.29 55.26 141.70 57.75 139.06 60.13 C 125.66 58.98 112.44 59.06 99.32 62.25 C 66.32 59.00 33.14 57.21 0.00 56.00 L 0.00 54.09 C 13.50 52.96 27.10 52.45 40.53 54.61 C 67.04 58.04 93.75 50.60 120.14 55.80 Z" />
<path fill="#cea7ad" d=" M 155.88 48.98 C 162.98 48.30 170.10 47.91 177.24 48.16 C 172.58 50.71 167.93 53.29 163.43 56.13 C 160.24 55.54 157.04 55.09 153.82 54.79 L 154.06 54.07 C 154.67 52.38 155.22 50.66 155.88 48.98 Z" />
<path fill="#add2fb" d=" M 214.30 50.27 C 226.06 48.16 240.55 47.04 249.07 57.06 C 252.55 55.98 258.34 51.47 259.30 57.81 C 260.57 63.92 267.18 59.31 270.09 57.15 C 277.63 52.46 285.96 58.68 293.97 58.00 C 297.76 58.20 301.19 56.30 304.89 56.07 C 310.35 57.95 314.84 62.72 321.20 61.20 C 312.43 62.12 303.95 65.07 294.99 64.01 C 280.65 63.18 267.37 70.72 253.02 69.97 C 246.55 68.81 238.92 73.55 233.73 68.04 C 232.47 68.02 231.21 68.04 229.96 68.10 C 228.31 67.49 226.72 66.77 225.16 65.98 C 222.89 60.93 206.94 56.43 214.30 50.27 Z" />
<path fill="#ceb7ca" d=" M 146.20 52.25 C 148.63 53.53 151.31 54.15 154.06 54.07 L 153.82 54.79 C 152.40 56.22 151.03 57.70 149.59 59.10 L 148.71 59.25 C 134.61 65.41 125.94 80.26 115.22 91.16 C 115.08 89.81 114.92 88.47 114.75 87.12 C 117.89 83.45 120.99 79.75 124.14 76.08 C 128.78 70.45 134.13 65.49 139.06 60.13 C 141.70 57.75 144.29 55.26 146.20 52.25 Z" />
<path fill="#925356" d=" M 191.55 56.85 C 193.64 55.70 195.77 54.61 198.01 53.79 C 199.28 54.57 200.29 55.69 201.23 56.83 C 204.55 69.74 194.80 61.23 191.55 56.85 Z" />
<path fill="#ae706e" d=" M 149.59 59.10 C 151.03 57.70 152.40 56.22 153.82 54.79 C 157.04 55.09 160.24 55.54 163.43 56.13 C 162.69 62.64 151.88 66.49 149.59 59.10 Z" />
<path fill="#73a5e3" d=" M 0.00 56.00 C 33.14 57.21 66.32 59.00 99.32 62.25 C 96.16 64.72 92.19 65.72 88.81 67.81 C 88.27 68.12 87.20 68.73 86.66 69.03 C 75.57 69.04 64.13 60.79 53.37 65.90 C 37.49 56.25 17.74 57.73 0.00 59.11 L 0.00 56.00 Z" />
<path fill="#b87a75" d=" M 179.99 61.09 C 181.55 56.69 187.74 56.58 191.55 56.85 C 194.80 61.23 204.55 69.74 201.23 56.83 C 207.49 67.01 220.13 68.83 229.92 74.09 C 232.34 78.42 234.92 82.67 236.93 87.21 C 230.88 84.36 225.64 79.95 219.27 77.77 C 218.04 75.08 216.58 72.50 214.84 70.11 C 212.82 71.59 211.05 73.51 208.59 74.27 C 200.47 72.48 192.20 71.27 183.89 70.85 C 185.11 69.41 186.78 68.13 187.11 66.15 C 184.81 64.22 179.11 65.24 179.99 61.09 Z" />
<path fill="#5488cc" d=" M 0.00 59.11 C 17.74 57.73 37.49 56.25 53.37 65.90 C 37.02 74.44 17.54 63.47 0.00 65.97 L 0.00 59.11 Z" />
<path fill="#6f98d4" d=" M 99.32 62.25 C 112.44 59.06 125.66 58.98 139.06 60.13 C 134.13 65.49 128.78 70.45 124.14 76.08 C 123.13 72.98 121.48 69.69 117.93 69.07 C 108.36 67.31 98.50 66.56 88.81 67.81 C 92.19 65.72 96.16 64.72 99.32 62.25 Z" />
<path fill="#eab2a5" d=" M 115.22 91.16 C 125.94 80.26 134.61 65.41 148.71 59.25 C 149.86 62.65 151.88 65.62 153.57 68.76 C 148.26 75.76 141.71 82.61 135.05 87.66 C 130.12 84.67 127.09 88.87 124.66 92.95 C 123.61 94.49 122.66 96.09 121.81 97.74 C 118.38 102.08 116.78 109.02 111.25 111.04 C 110.58 108.08 110.07 105.08 109.88 102.06 C 111.78 98.49 113.59 94.86 115.22 91.16 Z" />
<path fill="#6096da" d=" M 321.20 61.20 C 335.18 60.49 349.21 61.67 363.00 63.99 L 363.00 86.95 C 354.67 89.84 346.74 84.81 338.45 85.55 C 327.97 89.60 316.50 91.65 305.34 91.61 C 298.73 87.22 288.25 80.21 281.16 87.23 C 281.91 91.53 281.73 97.23 276.92 99.01 C 273.36 98.11 270.28 95.74 267.17 93.85 C 263.12 91.83 264.80 85.03 260.36 83.58 C 255.49 82.30 249.95 82.51 246.03 85.94 C 244.72 85.54 243.40 85.17 242.08 84.81 C 238.60 80.07 231.90 74.73 233.73 68.04 C 238.92 73.55 246.55 68.81 253.02 69.97 C 267.37 70.72 280.65 63.18 294.99 64.01 C 303.95 65.07 312.43 62.12 321.20 61.20 Z" />
<path fill="#457cc3" d=" M 53.37 65.90 C 64.13 60.79 75.57 69.04 86.66 69.03 C 96.03 72.38 108.30 68.57 115.89 76.28 C 116.23 79.64 114.74 82.63 113.60 85.64 C 110.07 90.42 109.29 96.47 107.98 102.10 C 92.74 100.68 77.59 97.92 62.25 98.28 C 53.38 91.16 41.44 93.72 31.35 89.63 C 22.10 83.68 10.48 85.08 0.00 84.99 L 0.00 65.97 C 17.54 63.47 37.02 74.44 53.37 65.90 Z" />
<path fill="#a8635d" d=" M 155.84 70.01 C 157.34 63.61 166.18 62.68 170.81 66.22 C 171.62 69.07 169.34 74.87 173.66 74.47 C 176.61 72.14 179.81 70.14 183.89 70.85 C 192.20 71.27 200.47 72.48 208.59 74.27 C 205.82 76.07 202.78 77.40 199.78 78.77 C 198.46 78.87 197.14 78.97 195.82 79.06 C 192.90 77.46 188.60 72.49 185.69 76.69 C 181.34 82.95 181.02 91.37 181.09 98.73 C 184.40 101.89 188.04 104.70 191.90 107.16 C 192.26 111.66 192.54 116.51 189.93 120.45 C 188.91 120.05 187.90 119.66 186.89 119.26 C 188.96 118.32 189.31 116.19 189.03 114.13 C 185.74 112.18 177.93 113.42 178.67 107.64 C 179.28 102.38 175.04 98.48 170.18 97.57 C 165.49 94.95 159.93 96.04 155.19 97.88 C 149.57 98.27 142.94 102.09 137.99 97.82 C 139.73 90.71 151.68 93.06 153.22 85.08 C 153.62 84.80 154.44 84.24 154.85 83.96 C 163.68 85.19 164.24 74.26 167.25 68.31 C 163.45 68.91 159.71 69.95 155.84 70.01 Z" />
<path fill="#5b89cb" d=" M 88.81 67.81 C 98.50 66.56 108.36 67.31 117.93 69.07 C 121.48 69.69 123.13 72.98 124.14 76.08 C 120.99 79.75 117.89 83.45 114.75 87.12 C 114.46 86.75 113.89 86.01 113.60 85.64 C 114.74 82.63 116.23 79.64 115.89 76.28 C 108.30 68.57 96.03 72.38 86.66 69.03 C 87.20 68.73 88.27 68.12 88.81 67.81 Z" />
<path fill="#9895b5" d=" M 229.96 68.10 C 231.21 68.04 232.47 68.02 233.73 68.04 C 231.90 74.73 238.60 80.07 242.08 84.81 C 243.66 89.54 246.45 94.09 245.90 99.27 C 242.67 95.43 240.37 90.89 236.93 87.21 C 234.92 82.67 232.34 78.42 229.92 74.09 C 229.93 72.09 229.96 70.10 229.96 68.10 Z" />
<path fill="#915553" d=" M 208.59 74.27 C 211.05 73.51 212.82 71.59 214.84 70.11 C 216.58 72.50 218.04 75.08 219.27 77.77 C 219.15 78.62 218.92 80.32 218.80 81.17 C 212.44 80.53 206.12 79.56 199.78 78.77 C 202.78 77.40 205.82 76.07 208.59 74.27 Z" />
<path fill="#edaa93" d=" M 157.00 73.09 C 170.24 71.65 154.86 79.21 154.85 83.96 C 154.44 84.24 153.62 84.80 153.22 85.08 C 150.75 86.31 148.41 87.77 145.93 88.98 C 144.09 81.23 150.18 75.29 157.00 73.09 Z" />
<path fill="#8f514e" d=" M 185.69 76.69 C 188.60 72.49 192.90 77.46 195.82 79.06 C 192.11 88.39 206.98 85.31 211.98 85.02 C 219.45 85.12 213.01 94.60 208.36 92.62 C 204.90 91.49 201.68 89.69 198.13 88.84 C 196.16 92.46 198.69 98.03 194.32 100.33 C 191.75 101.72 191.90 104.61 191.90 107.16 C 188.04 104.70 184.40 101.89 181.09 98.73 C 181.02 91.37 181.34 82.95 185.69 76.69 Z" />
<path fill="#9f6f6f" d=" M 219.27 77.77 C 225.64 79.95 230.88 84.36 236.93 87.21 C 240.37 90.89 242.67 95.43 245.90 99.27 C 246.01 101.28 246.11 103.28 246.24 105.29 C 241.26 108.09 231.17 103.86 232.99 97.00 C 235.05 90.96 228.48 89.38 225.15 86.57 C 223.02 84.78 220.90 82.98 218.80 81.17 C 218.92 80.32 219.15 78.62 219.27 77.77 Z" />
<path fill="#804546" d=" M 195.82 79.06 C 197.14 78.97 198.46 78.87 199.78 78.77 C 206.12 79.56 212.44 80.53 218.80 81.17 C 220.90 82.98 223.02 84.78 225.15 86.57 C 222.65 94.06 216.92 101.54 209.13 104.18 C 203.98 105.52 206.06 111.83 207.86 115.30 C 208.39 124.30 191.33 131.55 189.93 120.45 C 192.54 116.51 192.26 111.66 191.90 107.16 C 191.90 104.61 191.75 101.72 194.32 100.33 C 198.69 98.03 196.16 92.46 198.13 88.84 C 201.68 89.69 204.90 91.49 208.36 92.62 C 213.01 94.60 219.45 85.12 211.98 85.02 C 206.98 85.31 192.11 88.39 195.82 79.06 Z" />
<path fill="#558ecf" d=" M 246.03 85.94 C 249.95 82.51 255.49 82.30 260.36 83.58 C 264.80 85.03 263.12 91.83 267.17 93.85 C 270.28 95.74 273.36 98.11 276.92 99.01 C 281.73 97.23 281.91 91.53 281.16 87.23 C 288.25 80.21 298.73 87.22 305.34 91.61 C 316.50 91.65 327.97 89.60 338.45 85.55 C 346.74 84.81 354.67 89.84 363.00 86.95 L 363.00 91.69 C 356.59 93.30 346.91 98.93 344.69 89.05 C 339.07 89.58 334.69 93.85 329.30 95.26 C 303.00 96.00 277.73 106.55 251.12 104.00 C 252.24 97.39 249.54 91.30 246.03 85.94 Z" />
<path fill="#3d70af" d=" M 0.00 84.99 C 10.48 85.08 22.10 83.68 31.35 89.63 C 20.90 90.10 10.37 90.51 0.00 88.90 L 0.00 84.99 Z" />
<path fill="#934b47" d=" M 156.20 85.07 C 160.10 85.86 165.81 86.91 162.91 92.80 C 158.92 97.35 151.44 88.74 156.20 85.07 Z" />
<path fill="#6f8fc1" d=" M 242.08 84.81 C 243.40 85.17 244.72 85.54 246.03 85.94 C 249.54 91.30 252.24 97.39 251.12 104.00 C 250.55 104.22 249.42 104.67 248.85 104.89 C 248.41 104.96 247.54 105.10 247.10 105.16 L 246.24 105.29 C 246.11 103.28 246.01 101.28 245.90 99.27 C 246.45 94.09 243.66 89.54 242.08 84.81 Z" />
<path fill="#828aaf" d=" M 107.98 102.10 C 109.29 96.47 110.07 90.42 113.60 85.64 C 113.89 86.01 114.46 86.75 114.75 87.12 C 114.92 88.47 115.08 89.81 115.22 91.16 C 113.59 94.86 111.78 98.49 109.88 102.06 C 109.40 102.07 108.45 102.09 107.98 102.10 Z" />
<path fill="#855557" d=" M 209.13 104.18 C 216.92 101.54 222.65 94.06 225.15 86.57 C 228.48 89.38 235.05 90.96 232.99 97.00 C 231.17 103.86 241.26 108.09 246.24 105.29 L 247.10 105.16 C 246.59 113.33 246.12 122.89 252.31 129.23 C 249.60 129.51 246.94 129.83 244.24 130.05 C 242.89 123.89 235.39 120.64 230.17 117.94 C 226.30 126.08 229.81 134.76 229.74 143.21 C 228.16 135.87 227.12 128.40 224.91 121.20 C 225.14 115.79 224.93 110.37 223.86 105.05 C 219.12 102.74 219.67 110.75 215.36 108.60 C 210.89 106.54 209.46 112.32 207.86 115.30 C 206.06 111.83 203.98 105.52 209.13 104.18 Z" />
<path fill="#345a87" d=" M 0.00 88.90 C 10.37 90.51 20.90 90.10 31.35 89.63 C 41.44 93.72 53.38 91.16 62.25 98.28 C 77.59 97.92 92.74 100.68 107.98 102.10 C 107.98 102.57 107.98 103.53 107.98 104.00 C 106.35 104.80 104.69 105.53 103.00 106.20 C 90.97 102.80 78.32 102.17 65.97 103.86 C 56.05 102.91 47.20 97.72 37.55 95.59 C 25.13 93.67 12.51 93.79 0.00 92.91 L 0.00 88.90 Z" />
<path fill="#4e7fba" d=" M 329.30 95.26 C 334.69 93.85 339.07 89.58 344.69 89.05 C 346.91 98.93 356.59 93.30 363.00 91.69 L 363.00 96.68 C 356.41 99.32 349.62 100.42 342.60 99.49 C 334.98 103.22 326.62 104.82 318.26 106.33 C 311.09 105.19 303.01 104.14 296.83 108.80 L 296.12 109.17 C 280.63 111.20 265.09 110.06 249.87 106.97 C 249.62 106.45 249.10 105.41 248.85 104.89 C 249.42 104.67 250.55 104.22 251.12 104.00 C 277.73 106.55 303.00 96.00 329.30 95.26 Z" />
<path fill="#2b456c" d=" M 0.00 92.91 C 12.51 93.79 25.13 93.67 37.55 95.59 C 47.20 97.72 56.05 102.91 65.97 103.86 C 78.32 102.17 90.97 102.80 103.00 106.20 C 102.74 115.15 107.36 127.36 97.79 132.95 C 91.65 130.14 85.83 135.40 80.13 132.60 C 53.64 127.40 26.98 122.56 0.00 120.87 L 0.00 92.91 Z" />
<path fill="#a56358" d=" M 121.81 97.74 C 122.66 96.09 123.61 94.49 124.66 92.95 C 127.60 97.85 136.25 98.59 133.95 105.87 C 133.68 106.12 133.13 106.62 132.86 106.86 C 128.43 110.59 126.60 116.43 126.98 122.08 C 120.97 121.42 114.87 120.34 109.16 122.95 C 108.98 121.33 108.89 119.70 108.77 118.07 C 120.25 120.04 122.67 106.31 121.81 97.74 Z" />
<path fill="#d18f95" d=" M 155.19 97.88 C 159.93 96.04 165.49 94.95 170.18 97.57 C 171.63 100.48 173.62 103.08 174.99 106.03 C 172.92 111.40 166.39 109.32 161.94 110.81 C 161.07 109.11 160.21 107.42 159.30 105.74 C 156.60 101.98 149.86 104.42 145.81 103.13 C 145.30 102.88 144.27 102.37 143.76 102.12 C 147.62 101.67 153.20 101.78 155.19 97.88 Z" />
<path fill="#605d66" d=" M 342.60 99.49 C 349.62 100.42 356.41 99.32 363.00 96.68 L 363.00 104.76 C 352.91 106.19 343.75 111.75 333.13 110.21 C 320.59 122.73 302.51 111.93 288.00 118.94 C 283.53 122.29 275.63 116.05 272.72 121.45 C 268.09 123.54 262.99 125.13 259.46 128.99 C 257.07 129.05 254.68 129.13 252.31 129.23 C 246.12 122.89 246.59 113.33 247.10 105.16 C 247.54 105.10 248.41 104.96 248.85 104.89 C 249.10 105.41 249.62 106.45 249.87 106.97 C 250.99 111.82 255.53 116.38 260.97 114.77 C 272.65 113.22 285.88 116.47 296.12 109.17 L 296.83 108.80 C 304.05 109.43 311.36 108.51 318.26 106.33 C 326.62 104.82 334.98 103.22 342.60 99.49 Z" />
<path fill="#c48d83" d=" M 111.25 111.04 C 116.78 109.02 118.38 102.08 121.81 97.74 C 122.67 106.31 120.25 120.04 108.77 118.07 L 107.76 117.72 C 107.89 113.14 108.03 108.58 107.98 104.00 C 107.98 103.53 107.98 102.57 107.98 102.10 C 108.45 102.09 109.40 102.07 109.88 102.06 C 110.07 105.08 110.58 108.08 111.25 111.04 Z" />
<path fill="#bd7980" d=" M 170.18 97.57 C 175.04 98.48 179.28 102.38 178.67 107.64 C 177.93 113.42 185.74 112.18 189.03 114.13 C 189.31 116.19 188.96 118.32 186.89 119.26 C 182.45 119.52 184.79 123.62 186.02 126.08 C 177.35 123.46 171.16 116.33 162.84 112.98 C 162.62 112.44 162.16 111.35 161.94 110.81 C 166.39 109.32 172.92 111.40 174.99 106.03 C 173.62 103.08 171.63 100.48 170.18 97.57 Z" />
<path fill="#f8c9d7" d=" M 134.68 105.52 C 137.51 103.98 140.36 101.82 143.76 102.12 C 144.27 102.37 145.30 102.88 145.81 103.13 C 148.13 106.04 153.65 107.50 152.99 111.83 C 150.64 117.02 145.70 120.98 140.16 122.12 C 135.56 117.65 136.24 111.20 134.68 105.52 Z" />
<path fill="#f1bbc7" d=" M 145.81 103.13 C 149.86 104.42 156.60 101.98 159.30 105.74 C 162.39 119.53 155.80 131.17 149.77 142.73 C 144.40 145.65 138.61 147.67 133.10 150.25 C 132.35 152.97 135.00 154.51 136.74 156.01 C 137.05 156.25 137.68 156.74 137.99 156.98 C 140.91 161.83 140.42 170.69 133.71 171.65 C 125.44 171.77 120.67 163.41 120.69 155.81 C 122.33 150.26 123.24 144.37 126.04 139.23 C 131.78 129.36 134.95 118.49 132.86 106.86 C 133.13 106.62 133.68 106.12 133.95 105.87 L 134.68 105.52 C 136.24 111.20 135.56 117.65 140.16 122.12 C 145.70 120.98 150.64 117.02 152.99 111.83 C 153.65 107.50 148.13 106.04 145.81 103.13 Z" />
<path fill="#474b67" d=" M 103.00 106.20 C 104.69 105.53 106.35 104.80 107.98 104.00 C 108.03 108.58 107.89 113.14 107.76 117.72 C 107.01 123.07 107.02 128.47 107.03 133.86 L 106.11 134.04 C 103.32 133.72 100.55 133.39 97.79 132.95 C 107.36 127.36 102.74 115.15 103.00 106.20 Z" />
<path fill="#996167" d=" M 215.36 108.60 C 219.67 110.75 219.12 102.74 223.86 105.05 C 224.93 110.37 225.14 115.79 224.91 121.20 C 221.69 119.01 218.93 115.94 215.10 114.82 C 215.58 119.47 216.62 124.04 217.13 128.69 C 216.46 129.54 215.78 130.38 215.10 131.21 C 214.00 127.44 213.52 123.47 211.87 119.88 C 207.92 121.45 205.95 126.20 201.82 127.94 C 199.93 127.94 198.05 127.92 196.17 127.83 C 192.80 127.22 189.26 127.33 186.02 126.08 C 184.79 123.62 182.45 119.52 186.89 119.26 C 187.90 119.66 188.91 120.05 189.93 120.45 C 191.33 131.55 208.39 124.30 207.86 115.30 C 209.46 112.32 210.89 106.54 215.36 108.60 Z" />
<path fill="#55688a" d=" M 296.83 108.80 C 303.01 104.14 311.09 105.19 318.26 106.33 C 311.36 108.51 304.05 109.43 296.83 108.80 Z" />
<path fill="#635955" d=" M 333.13 110.21 C 343.75 111.75 352.91 106.19 363.00 104.76 L 363.00 153.35 C 353.43 150.04 348.14 136.82 337.54 137.47 C 333.94 142.09 329.74 138.04 325.97 136.01 C 317.77 144.29 305.43 144.95 294.85 141.14 C 297.77 131.18 286.55 128.09 279.32 129.69 C 277.26 126.83 275.52 123.68 272.72 121.45 C 275.63 116.05 283.53 122.29 288.00 118.94 C 302.51 111.93 320.59 122.73 333.13 110.21 Z" />
<path fill="#e0a4b4" d=" M 159.30 105.74 C 160.21 107.42 161.07 109.11 161.94 110.81 C 162.16 111.35 162.62 112.44 162.84 112.98 C 163.67 121.87 177.41 121.47 178.01 129.80 C 171.46 132.99 162.98 134.42 159.78 141.83 C 155.02 144.83 149.64 146.64 144.60 149.09 C 144.11 149.28 143.12 149.66 142.63 149.85 C 139.74 150.78 138.23 153.60 136.74 156.01 C 135.00 154.51 132.35 152.97 133.10 150.25 C 138.61 147.67 144.40 145.65 149.77 142.73 C 155.80 131.17 162.39 119.53 159.30 105.74 Z" />
<path fill="#c5888a" d=" M 126.98 122.08 C 126.60 116.43 128.43 110.59 132.86 106.86 C 134.95 118.49 131.78 129.36 126.04 139.23 C 125.62 137.83 125.22 136.42 124.88 135.00 C 125.57 130.69 126.72 126.44 126.98 122.08 Z" />
<path fill="#51617c" d=" M 249.87 106.97 C 265.09 110.06 280.63 111.20 296.12 109.17 C 285.88 116.47 272.65 113.22 260.97 114.77 C 255.53 116.38 250.99 111.82 249.87 106.97 Z" />
<path fill="#d294a5" d=" M 162.84 112.98 C 171.16 116.33 177.35 123.46 186.02 126.08 C 189.26 127.33 192.80 127.22 196.17 127.83 C 197.47 130.27 200.24 133.08 197.69 135.68 C 193.48 138.06 188.84 139.57 184.68 142.03 C 176.44 143.76 168.07 142.04 159.78 141.83 C 162.98 134.42 171.46 132.99 178.01 129.80 C 177.41 121.47 163.67 121.87 162.84 112.98 Z" />
<path fill="#a97985" d=" M 215.10 114.82 C 218.93 115.94 221.69 119.01 224.91 121.20 C 227.12 128.40 228.16 135.87 229.74 143.21 C 229.96 147.56 230.69 151.85 231.15 156.17 C 230.91 160.52 231.16 164.94 230.42 169.25 C 231.81 162.32 225.27 162.56 220.23 162.93 C 219.67 160.75 219.25 158.27 217.29 156.88 C 215.30 155.76 213.13 155.01 211.06 154.07 L 210.95 153.21 C 224.74 154.79 229.07 134.10 217.13 128.69 C 216.62 124.04 215.58 119.47 215.10 114.82 Z" />
<path fill="#8d514c" d=" M 107.03 133.86 C 107.02 128.47 107.01 123.07 107.76 117.72 L 108.77 118.07 C 108.89 119.70 108.98 121.33 109.16 122.95 C 114.87 120.34 120.97 121.42 126.98 122.08 C 126.72 126.44 125.57 130.69 124.88 135.00 C 120.91 137.98 114.10 139.59 110.90 134.79 C 109.91 133.80 108.29 134.17 107.03 133.86 Z" />
<path fill="#63373c" d=" M 230.17 117.94 C 235.39 120.64 242.89 123.89 244.24 130.05 C 243.50 136.33 242.74 142.61 241.81 148.87 C 238.53 151.61 236.03 156.45 231.15 156.17 C 230.69 151.85 229.96 147.56 229.74 143.21 C 229.81 134.76 226.30 126.08 230.17 117.94 Z" />
<path fill="#ab737c" d=" M 201.82 127.94 C 205.95 126.20 207.92 121.45 211.87 119.88 C 213.52 123.47 214.00 127.44 215.10 131.21 C 211.45 136.38 205.36 130.30 201.82 127.94 Z" />
<path fill="#68656f" d=" M 0.00 120.87 C 26.98 122.56 53.64 127.40 80.13 132.60 C 68.33 140.66 55.34 131.62 42.98 131.18 C 28.56 130.96 14.27 128.71 0.00 126.80 L 0.00 120.87 Z" />
<path fill="#73655f" d=" M 259.46 128.99 C 262.99 125.13 268.09 123.54 272.72 121.45 C 275.52 123.68 277.26 126.83 279.32 129.69 C 286.55 128.09 297.77 131.18 294.85 141.14 C 292.98 141.54 291.12 141.99 289.26 142.41 C 280.20 136.42 265.56 139.57 259.46 128.99 Z" />
<path fill="#6d605b" d=" M 0.00 126.80 C 14.27 128.71 28.56 130.96 42.98 131.18 C 55.34 131.62 68.33 140.66 80.13 132.60 C 85.83 135.40 91.65 130.14 97.79 132.95 C 100.55 133.39 103.32 133.72 106.11 134.04 C 104.83 138.03 103.14 141.96 102.92 146.20 C 102.43 150.18 102.08 154.19 102.14 158.21 L 101.69 158.87 C 99.99 158.88 96.58 158.91 94.88 158.92 C 100.68 151.62 90.15 144.35 83.39 144.07 C 83.01 145.58 82.25 148.60 81.88 150.11 C 74.49 151.03 77.21 137.68 69.00 140.91 C 60.49 138.24 52.57 149.35 44.94 142.10 C 39.60 137.60 32.21 138.61 26.38 141.45 C 18.17 145.89 8.70 145.43 0.00 142.75 L 0.00 126.80 Z" />
<path fill="#ba8694" d=" M 196.17 127.83 C 198.05 127.92 199.93 127.94 201.82 127.94 C 205.36 130.30 211.45 136.38 215.10 131.21 C 215.78 130.38 216.46 129.54 217.13 128.69 C 229.07 134.10 224.74 154.79 210.95 153.21 C 207.26 150.38 203.49 147.65 199.35 145.53 C 195.05 142.47 189.49 143.62 184.68 142.03 C 188.84 139.57 193.48 138.06 197.69 135.68 C 200.24 133.08 197.47 130.27 196.17 127.83 Z" />
<path fill="#675854" d=" M 252.31 129.23 C 254.68 129.13 257.07 129.05 259.46 128.99 C 265.56 139.57 280.20 136.42 289.26 142.41 C 278.00 147.31 266.04 137.09 255.13 143.16 C 248.56 144.38 246.15 150.47 243.59 155.77 L 243.01 156.46 C 242.56 153.93 242.16 151.40 241.81 148.87 C 242.74 142.61 243.50 136.33 244.24 130.05 C 246.94 129.83 249.60 129.51 252.31 129.23 Z" />
<path fill="#d49b9f" d=" M 106.11 134.04 L 107.03 133.86 C 108.29 134.17 109.91 133.80 110.90 134.79 C 108.42 138.36 108.77 146.27 102.92 146.20 C 103.14 141.96 104.83 138.03 106.11 134.04 Z" />
<path fill="#b7696c" d=" M 102.92 146.20 C 108.77 146.27 108.42 138.36 110.90 134.79 C 114.10 139.59 120.91 137.98 124.88 135.00 C 125.22 136.42 125.62 137.83 126.04 139.23 C 123.24 144.37 122.33 150.26 120.69 155.81 C 120.08 158.38 119.47 160.99 119.12 163.62 C 116.72 165.24 114.29 166.82 111.81 168.31 C 108.83 167.36 105.17 164.91 106.25 161.31 C 108.55 157.52 115.69 152.66 110.79 148.07 C 106.44 148.65 105.14 155.06 102.14 158.21 C 102.08 154.19 102.43 150.18 102.92 146.20 Z" />
<path fill="#524d49" d=" M 294.85 141.14 C 305.43 144.95 317.77 144.29 325.97 136.01 C 329.74 138.04 333.94 142.09 337.54 137.47 C 348.14 136.82 353.43 150.04 363.00 153.35 L 363.00 163.94 C 346.87 163.68 330.23 167.56 314.70 161.36 C 303.94 156.19 291.75 159.47 280.53 156.64 C 268.25 154.36 256.16 158.46 243.94 159.09 C 243.85 158.26 243.68 156.60 243.59 155.77 C 246.15 150.47 248.56 144.38 255.13 143.16 C 266.04 137.09 278.00 147.31 289.26 142.41 C 291.12 141.99 292.98 141.54 294.85 141.14 Z" />
<path fill="#57594c" d=" M 26.38 141.45 C 32.21 138.61 39.60 137.60 44.94 142.10 C 52.57 149.35 60.49 138.24 69.00 140.91 C 77.21 137.68 74.49 151.03 81.88 150.11 C 82.25 148.60 83.01 145.58 83.39 144.07 C 90.15 144.35 100.68 151.62 94.88 158.92 C 79.58 163.65 62.87 159.84 47.06 160.98 C 49.42 152.74 44.47 146.66 37.64 143.26 C 32.06 141.47 29.32 147.67 24.36 148.42 C 16.46 151.71 7.96 147.41 0.00 150.11 L 0.00 142.75 C 8.70 145.43 18.17 145.89 26.38 141.45 Z" />
<path fill="#b8798a" d=" M 144.60 149.09 C 149.64 146.64 155.02 144.83 159.78 141.83 C 168.07 142.04 176.44 143.76 184.68 142.03 C 189.49 143.62 195.05 142.47 199.35 145.53 C 194.98 146.37 187.35 144.77 185.04 150.07 C 181.95 156.05 187.62 162.87 193.07 164.96 C 202.02 167.24 211.39 164.75 220.23 162.93 C 225.27 162.56 231.81 162.32 230.42 169.25 C 230.21 170.48 230.00 171.70 229.78 172.93 C 223.43 180.28 213.85 183.12 204.94 185.94 C 200.82 186.50 198.44 181.68 195.06 180.02 C 194.47 181.95 194.16 183.95 193.95 185.95 C 186.46 185.65 179.02 187.40 171.54 186.62 C 167.75 184.11 165.02 187.70 164.76 190.81 C 159.06 188.86 155.05 194.35 149.99 195.95 C 144.66 194.60 141.46 187.32 143.66 182.68 C 149.41 180.32 156.82 177.93 162.79 181.42 C 170.45 185.05 182.21 187.04 188.89 180.78 C 186.81 174.11 184.38 167.50 183.31 160.54 C 184.14 154.52 176.42 157.41 174.09 160.13 C 165.71 168.04 151.54 166.06 143.88 158.09 C 142.23 156.73 139.96 157.19 137.99 156.98 C 137.68 156.74 137.05 156.25 136.74 156.01 C 138.23 153.60 139.74 150.78 142.63 149.85 C 141.87 154.81 146.72 155.35 150.77 155.16 C 155.67 162.69 167.28 164.35 173.29 157.32 C 177.34 155.13 176.89 148.97 172.43 147.69 C 163.29 141.48 153.76 152.55 144.60 149.09 Z" />
<path fill="#474846" d=" M 24.36 148.42 C 29.32 147.67 32.06 141.47 37.64 143.26 C 44.47 146.66 49.42 152.74 47.06 160.98 C 38.13 161.00 29.21 160.93 20.29 161.20 C 13.30 159.20 6.64 161.26 0.00 163.32 L 0.00 150.11 C 7.96 147.41 16.46 151.71 24.36 148.42 Z" />
<path fill="#7b4453" d=" M 144.60 149.09 C 153.76 152.55 163.29 141.48 172.43 147.69 C 171.80 150.49 171.61 153.62 169.76 155.95 C 163.42 156.09 157.11 155.13 150.77 155.16 C 146.72 155.35 141.87 154.81 142.63 149.85 C 143.12 149.66 144.11 149.28 144.60 149.09 Z" />
<path fill="#945f70" d=" M 185.04 150.07 C 187.35 144.77 194.98 146.37 199.35 145.53 C 203.49 147.65 207.26 150.38 210.95 153.21 L 211.06 154.07 C 203.64 152.05 196.17 149.23 188.34 150.19 C 185.46 151.99 188.64 156.60 190.74 158.25 C 198.20 161.64 207.17 159.17 215.11 160.78 C 217.78 161.79 216.85 158.43 217.29 156.88 C 219.25 158.27 219.67 160.75 220.23 162.93 C 211.39 164.75 202.02 167.24 193.07 164.96 C 187.62 162.87 181.95 156.05 185.04 150.07 Z" />
<path fill="#e39eb0" d=" M 102.14 158.21 C 105.14 155.06 106.44 148.65 110.79 148.07 C 115.69 152.66 108.55 157.52 106.25 161.31 C 105.17 164.91 108.83 167.36 111.81 168.31 C 117.18 171.60 119.45 180.83 112.05 183.17 C 107.17 176.11 103.28 168.33 100.85 160.09 C 101.06 159.78 101.48 159.17 101.69 158.87 L 102.14 158.21 Z" />
<path fill="#935a6e" d=" M 172.43 147.69 C 176.89 148.97 177.34 155.13 173.29 157.32 C 167.28 164.35 155.67 162.69 150.77 155.16 C 157.11 155.13 163.42 156.09 169.76 155.95 C 171.61 153.62 171.80 150.49 172.43 147.69 Z" />
<path fill="#804650" d=" M 231.15 156.17 C 236.03 156.45 238.53 151.61 241.81 148.87 C 242.16 151.40 242.56 153.93 243.01 156.46 C 242.53 161.56 233.68 158.00 237.08 165.03 C 235.98 169.28 239.62 177.12 233.90 179.00 C 230.07 180.20 230.18 175.45 229.78 172.93 C 230.00 171.70 230.21 170.48 230.42 169.25 C 231.16 164.94 230.91 160.52 231.15 156.17 Z" />
<path fill="#6d3d4b" d=" M 188.34 150.19 C 196.17 149.23 203.64 152.05 211.06 154.07 C 213.13 155.01 215.30 155.76 217.29 156.88 C 216.85 158.43 217.78 161.79 215.11 160.78 C 207.17 159.17 198.20 161.64 190.74 158.25 C 188.64 156.60 185.46 151.99 188.34 150.19 Z" />
<path fill="#dfa0ad" d=" M 119.12 163.62 C 119.47 160.99 120.08 158.38 120.69 155.81 C 120.67 163.41 125.44 171.77 133.71 171.65 C 140.42 170.69 140.91 161.83 137.99 156.98 C 139.96 157.19 142.23 156.73 143.88 158.09 C 145.21 162.68 147.60 167.07 148.10 171.87 C 145.52 173.39 142.71 174.51 139.84 175.35 C 139.18 175.30 137.87 175.22 137.21 175.17 C 133.52 174.62 126.86 173.97 126.03 179.09 C 126.84 186.33 129.77 193.71 135.99 198.00 C 140.88 207.07 125.23 207.30 125.73 216.09 C 125.33 215.76 124.54 215.11 124.14 214.78 C 123.06 205.19 119.60 196.00 118.96 186.35 C 125.49 180.89 119.85 170.70 119.12 163.62 Z" />
<path fill="#a56777" d=" M 243.01 156.46 L 243.59 155.77 C 243.68 156.60 243.85 158.26 243.94 159.09 C 242.74 164.28 244.50 170.50 250.12 171.89 C 246.51 171.71 243.01 172.98 240.18 175.20 C 239.21 178.46 239.74 182.09 237.62 184.97 C 234.44 188.98 231.01 192.82 226.95 195.96 C 221.19 201.87 221.31 210.81 218.47 218.20 C 218.33 211.98 211.28 212.08 206.84 213.77 C 196.45 216.67 199.05 231.04 190.30 236.27 C 184.57 238.29 176.12 233.84 171.73 239.83 C 166.65 240.79 159.72 240.08 157.55 245.96 L 156.83 246.15 C 154.78 245.31 150.91 245.48 152.15 242.25 C 156.88 237.66 165.28 241.02 170.24 236.27 C 174.25 233.01 181.19 231.92 182.11 226.14 C 175.66 223.19 167.31 227.17 161.19 222.69 C 159.43 216.34 168.86 216.06 170.57 210.89 C 179.96 210.92 189.36 210.96 198.72 211.75 C 200.81 211.30 203.10 207.28 200.66 206.24 C 188.35 205.15 175.83 207.21 163.62 205.21 C 166.39 204.69 169.20 204.33 171.96 203.76 C 171.99 200.41 170.85 197.21 169.95 194.03 C 177.69 199.82 193.61 197.29 193.95 185.95 C 194.16 183.95 194.47 181.95 195.06 180.02 C 198.44 181.68 200.82 186.50 204.94 185.94 C 213.85 183.12 223.43 180.28 229.78 172.93 C 230.18 175.45 230.07 180.20 233.90 179.00 C 239.62 177.12 235.98 169.28 237.08 165.03 C 233.68 158.00 242.53 161.56 243.01 156.46 Z" />
<path fill="#514f5a" d=" M 243.94 159.09 C 256.16 158.46 268.25 154.36 280.53 156.64 C 291.75 159.47 303.94 156.19 314.70 161.36 C 330.23 167.56 346.87 163.68 363.00 163.94 L 363.00 184.09 C 356.37 183.21 349.68 182.94 343.00 182.91 L 342.15 182.84 C 341.38 182.24 340.62 181.63 339.87 181.02 C 338.95 178.71 340.86 172.67 337.02 174.14 C 329.76 176.22 322.18 176.30 314.72 175.25 C 305.53 174.27 296.31 173.69 287.11 172.91 C 281.15 171.89 274.98 171.44 269.03 172.66 C 263.30 172.05 257.56 172.08 251.82 172.13 C 251.39 172.07 250.54 171.95 250.12 171.89 C 244.50 170.50 242.74 164.28 243.94 159.09 Z" />
<path fill="#d391a4" d=" M 174.09 160.13 C 176.42 157.41 184.14 154.52 183.31 160.54 C 178.45 161.50 173.77 163.74 170.20 167.21 C 167.03 170.15 169.60 175.63 166.15 178.36 C 160.39 169.94 148.24 180.15 139.84 175.35 C 142.71 174.51 145.52 173.39 148.10 171.87 C 147.60 167.07 145.21 162.68 143.88 158.09 C 151.54 166.06 165.71 168.04 174.09 160.13 Z" />
<path fill="#969cc2" d=" M 47.06 160.98 C 62.87 159.84 79.58 163.65 94.88 158.92 C 96.58 158.91 99.99 158.88 101.69 158.87 C 101.48 159.17 101.06 159.78 100.85 160.09 C 92.62 164.25 102.60 173.47 103.17 179.84 C 95.31 176.94 89.21 183.23 83.31 187.35 C 75.39 191.60 74.10 177.35 66.26 180.30 C 61.16 182.75 56.16 186.48 50.14 185.92 C 43.34 182.97 36.94 177.79 29.02 178.91 C 18.63 177.78 10.54 186.94 0.00 185.11 L 0.00 165.08 C 6.76 164.96 14.88 166.41 20.29 161.20 C 29.21 160.93 38.13 161.00 47.06 160.98 Z" />
<path fill="#606277" d=" M 0.00 163.32 C 6.64 161.26 13.30 159.20 20.29 161.20 C 14.88 166.41 6.76 164.96 0.00 165.08 L 0.00 163.32 Z" />
<path fill="#ab9cbe" d=" M 103.17 179.84 C 102.60 173.47 92.62 164.25 100.85 160.09 C 103.28 168.33 107.17 176.11 112.05 183.17 C 113.30 185.96 116.25 186.23 118.96 186.35 C 119.60 196.00 123.06 205.19 124.14 214.78 C 124.10 217.86 124.06 220.98 124.02 224.08 L 123.11 223.96 C 118.69 212.35 121.61 197.52 111.33 188.61 C 108.84 185.48 106.20 182.45 103.17 179.84 Z" />
<path fill="#e7a1b6" d=" M 170.20 167.21 C 173.77 163.74 178.45 161.50 183.31 160.54 C 184.38 167.50 186.81 174.11 188.89 180.78 C 182.21 187.04 170.45 185.05 162.79 181.42 C 163.94 180.44 165.10 179.46 166.15 178.36 C 169.60 175.63 167.03 170.15 170.20 167.21 Z" />
<path fill="#c57d88" d=" M 111.81 168.31 C 114.29 166.82 116.72 165.24 119.12 163.62 C 119.85 170.70 125.49 180.89 118.96 186.35 C 116.25 186.23 113.30 185.96 112.05 183.17 C 119.45 180.83 117.18 171.60 111.81 168.31 Z" />
<path fill="#a1a7d1" d=" M 240.18 175.20 C 243.01 172.98 246.51 171.71 250.12 171.89 C 250.54 171.95 251.39 172.07 251.82 172.13 C 257.48 173.31 263.29 172.94 269.03 172.66 C 269.29 173.25 269.83 174.43 270.09 175.02 C 268.08 177.81 259.70 181.08 265.08 183.91 C 263.01 183.62 260.96 183.21 258.89 183.07 C 258.79 187.39 264.74 189.06 263.02 194.02 C 263.04 196.52 265.45 199.34 268.58 196.44 C 279.73 195.53 291.78 191.77 302.22 197.56 C 311.63 198.50 321.24 198.88 330.35 201.64 C 334.00 202.24 329.74 207.86 331.33 209.68 C 333.34 212.63 337.56 215.64 340.95 212.90 C 347.24 206.98 355.46 211.37 363.00 211.14 L 363.00 276.86 C 357.26 277.56 351.52 278.28 345.82 279.18 C 341.75 275.85 336.88 273.31 333.97 268.80 C 338.11 267.08 341.82 270.70 345.89 270.75 C 349.89 269.67 353.86 268.42 357.77 267.05 C 353.95 262.56 357.93 260.73 362.27 259.79 C 355.46 260.07 345.54 250.88 340.56 258.44 C 342.02 265.23 336.82 265.34 331.99 265.14 C 331.80 264.77 331.43 264.04 331.25 263.67 C 331.93 256.24 323.97 251.44 317.26 252.09 C 311.11 252.05 304.97 251.92 298.83 251.97 C 300.43 249.79 305.20 247.04 301.29 244.74 C 295.79 243.03 289.36 244.84 283.70 243.01 C 287.51 237.04 286.18 228.19 292.01 223.75 C 295.57 225.66 295.43 230.38 298.28 232.90 C 306.42 236.05 303.63 226.28 303.89 222.30 C 300.80 218.18 294.28 219.78 291.11 215.75 C 290.98 209.39 297.26 204.57 296.95 198.21 C 292.35 193.36 284.59 198.16 283.99 204.00 C 282.62 211.78 271.68 206.80 267.08 205.88 C 260.13 204.40 255.65 196.89 247.98 198.02 C 243.71 196.37 237.81 200.58 234.13 197.77 C 233.27 193.36 240.67 196.50 243.00 193.78 C 243.20 190.12 239.09 188.04 237.62 184.97 C 239.74 182.09 239.21 178.46 240.18 175.20 Z" />
<path fill="#737288" d=" M 251.82 172.13 C 257.56 172.08 263.30 172.05 269.03 172.66 C 263.29 172.94 257.48 173.31 251.82 172.13 Z" />
<path fill="#737291" d=" M 269.03 172.66 C 274.98 171.44 281.15 171.89 287.11 172.91 C 281.64 174.87 275.83 175.00 270.09 175.02 C 269.83 174.43 269.29 173.25 269.03 172.66 Z" />
<path fill="#9095bc" d=" M 270.09 175.02 C 275.83 175.00 281.64 174.87 287.11 172.91 C 289.38 174.39 291.63 176.03 292.53 178.72 C 295.45 176.97 298.61 177.04 301.54 178.82 C 300.45 183.23 291.97 186.81 291.72 180.30 C 285.48 188.90 273.94 185.40 265.08 183.91 C 259.70 181.08 268.08 177.81 270.09 175.02 Z" />
<path fill="#6b6c8b" d=" M 287.11 172.91 C 296.31 173.69 305.53 174.27 314.72 175.25 C 316.89 178.26 319.37 181.10 322.38 183.31 C 320.91 183.65 319.43 183.96 317.95 184.23 C 313.42 180.31 307.40 178.93 301.54 178.82 C 298.61 177.04 295.45 176.97 292.53 178.72 C 291.63 176.03 289.38 174.39 287.11 172.91 Z" />
<path fill="#59586e" d=" M 314.72 175.25 C 322.18 176.30 329.76 176.22 337.02 174.14 C 340.86 172.67 338.95 178.71 339.87 181.02 C 334.02 181.67 328.19 182.44 322.38 183.31 C 319.37 181.10 316.89 178.26 314.72 175.25 Z" />
<path fill="#d18f9b" d=" M 126.03 179.09 C 126.86 173.97 133.52 174.62 137.21 175.17 C 134.42 177.78 129.11 179.66 131.21 184.67 C 134.71 189.83 141.40 192.54 142.99 199.14 C 145.73 210.33 130.51 210.27 127.63 219.19 C 127.02 218.14 126.38 217.11 125.73 216.09 C 125.23 207.30 140.88 207.07 135.99 198.00 C 129.77 193.71 126.84 186.33 126.03 179.09 Z" />
<path fill="#c37d8d" d=" M 137.21 175.17 C 137.87 175.22 139.18 175.30 139.84 175.35 C 148.24 180.15 160.39 169.94 166.15 178.36 C 165.10 179.46 163.94 180.44 162.79 181.42 C 156.82 177.93 149.41 180.32 143.66 182.68 C 141.46 187.32 144.66 194.60 149.99 195.95 C 155.05 194.35 159.06 188.86 164.76 190.81 C 166.53 191.81 168.26 192.89 169.95 194.03 C 170.85 197.21 171.99 200.41 171.96 203.76 C 169.20 204.33 166.39 204.69 163.62 205.21 C 158.71 205.49 153.05 203.53 148.74 206.70 C 140.74 210.24 135.66 217.30 129.87 223.44 C 129.09 222.04 128.36 220.62 127.63 219.19 C 130.51 210.27 145.73 210.33 142.99 199.14 C 141.40 192.54 134.71 189.83 131.21 184.67 C 129.11 179.66 134.42 177.78 137.21 175.17 Z" />
<path fill="#9aa1cb" d=" M 0.00 185.11 C 10.54 186.94 18.63 177.78 29.02 178.91 C 36.94 177.79 43.34 182.97 50.14 185.92 C 56.16 186.48 61.16 182.75 66.26 180.30 C 74.10 177.35 75.39 191.60 83.31 187.35 C 89.21 183.23 95.31 176.94 103.17 179.84 C 106.20 182.45 108.84 185.48 111.33 188.61 C 105.70 190.75 99.95 189.09 94.25 188.35 C 89.28 189.97 88.00 195.38 86.58 199.76 C 81.52 202.49 74.18 200.71 70.13 205.32 C 67.68 213.85 75.53 219.71 77.97 226.94 C 75.86 234.06 65.13 230.63 61.07 226.85 C 62.88 222.63 66.78 219.85 69.10 215.96 C 65.76 209.13 57.71 211.47 51.87 213.07 C 52.07 210.44 55.06 207.75 52.68 205.35 C 47.13 201.18 40.43 205.41 34.30 204.99 C 36.39 200.57 30.91 193.99 27.01 198.21 C 27.06 201.77 30.38 205.44 27.73 208.74 C 21.17 211.07 12.13 208.67 7.12 214.32 C 6.88 218.50 5.61 229.92 13.59 226.50 C 23.08 223.74 32.69 226.97 42.14 228.25 C 41.06 230.58 39.09 232.40 38.20 234.82 C 39.98 238.40 45.17 240.44 44.95 244.81 C 39.26 247.75 34.02 240.71 28.02 242.25 C 18.70 242.94 9.35 243.22 0.00 243.00 L 0.00 185.11 Z" />
<path fill="#a7b0da" d=" M 301.54 178.82 C 307.40 178.93 313.42 180.31 317.95 184.23 C 320.68 186.44 324.05 187.59 327.20 189.07 C 326.49 191.58 326.04 194.17 326.02 196.80 C 329.90 201.30 339.32 190.16 337.75 201.32 C 343.81 206.78 354.77 205.50 363.00 206.06 L 363.00 211.14 C 355.46 211.37 347.24 206.98 340.95 212.90 C 337.56 215.64 333.34 212.63 331.33 209.68 C 329.74 207.86 334.00 202.24 330.35 201.64 C 321.24 198.88 311.63 198.50 302.22 197.56 C 291.78 191.77 279.73 195.53 268.58 196.44 C 265.45 199.34 263.04 196.52 263.02 194.02 C 264.74 189.06 258.79 187.39 258.89 183.07 C 260.96 183.21 263.01 183.62 265.08 183.91 C 273.94 185.40 285.48 188.90 291.72 180.30 C 291.97 186.81 300.45 183.23 301.54 178.82 Z" />
<path fill="#8083a5" d=" M 322.38 183.31 C 328.19 182.44 334.02 181.67 339.87 181.02 C 340.62 181.63 341.38 182.24 342.15 182.84 C 337.69 183.69 327.99 180.72 327.85 187.96 C 327.69 188.23 327.37 188.79 327.20 189.07 C 324.05 187.59 320.68 186.44 317.95 184.23 C 319.43 183.96 320.91 183.65 322.38 183.31 Z" />
<path fill="#9fa2c7" d=" M 327.85 187.96 C 327.99 180.72 337.69 183.69 342.15 182.84 L 343.00 182.91 C 343.40 183.92 343.79 184.94 344.17 185.96 C 338.79 187.05 333.35 187.89 327.85 187.96 Z" />
<path fill="#8385a7" d=" M 343.00 182.91 C 349.68 182.94 356.37 183.21 363.00 184.09 L 363.00 188.09 C 356.71 187.51 350.42 186.82 344.17 185.96 C 343.79 184.94 343.40 183.92 343.00 182.91 Z" />
<path fill="#9da1c9" d=" M 226.95 195.96 C 231.01 192.82 234.44 188.98 237.62 184.97 C 239.09 188.04 243.20 190.12 243.00 193.78 C 240.67 196.50 233.27 193.36 234.13 197.77 C 237.81 200.58 243.71 196.37 247.98 198.02 C 255.65 196.89 260.13 204.40 267.08 205.88 C 271.68 206.80 282.62 211.78 283.99 204.00 C 284.59 198.16 292.35 193.36 296.95 198.21 C 297.26 204.57 290.98 209.39 291.11 215.75 C 294.28 219.78 300.80 218.18 303.89 222.30 C 303.63 226.28 306.42 236.05 298.28 232.90 C 295.43 230.38 295.57 225.66 292.01 223.75 C 286.18 228.19 287.51 237.04 283.70 243.01 C 277.93 241.02 271.99 242.09 266.76 244.87 C 262.34 244.81 257.99 243.65 253.90 242.03 C 252.09 241.11 250.23 240.28 248.30 239.68 C 242.46 237.42 236.45 235.58 230.70 233.13 C 234.11 231.12 246.95 230.16 234.80 229.15 C 244.56 228.81 255.09 232.17 264.39 228.51 C 265.89 224.46 273.91 218.21 267.35 215.60 C 263.17 215.32 255.88 212.49 254.18 218.14 C 252.54 223.83 245.56 221.46 241.59 220.56 C 236.54 217.74 235.73 223.80 232.66 225.85 C 227.32 226.12 222.02 225.44 216.72 224.97 L 215.83 224.84 C 216.93 222.72 217.78 220.48 218.47 218.20 C 221.31 210.81 221.19 201.87 226.95 195.96 Z" />
<path fill="#8e495c" d=" M 164.76 190.81 C 165.02 187.70 167.75 184.11 171.54 186.62 C 179.02 187.40 186.46 185.65 193.95 185.95 C 193.61 197.29 177.69 199.82 169.95 194.03 C 168.26 192.89 166.53 191.81 164.76 190.81 Z" />
<path fill="#b0b9e3" d=" M 327.85 187.96 C 333.35 187.89 338.79 187.05 344.17 185.96 C 350.42 186.82 356.71 187.51 363.00 188.09 L 363.00 206.06 C 354.77 205.50 343.81 206.78 337.75 201.32 C 339.32 190.16 329.90 201.30 326.02 196.80 C 326.04 194.17 326.49 191.58 327.20 189.07 C 327.37 188.79 327.69 188.23 327.85 187.96 Z" />
<path fill="#939bc3" d=" M 94.25 188.35 C 99.95 189.09 105.70 190.75 111.33 188.61 C 121.61 197.52 118.69 212.35 123.11 223.96 C 123.40 226.56 122.55 229.24 119.64 229.68 C 113.01 232.49 113.40 222.61 107.90 222.04 C 101.92 220.12 105.07 231.89 99.12 229.92 C 96.51 229.09 94.34 227.34 91.93 226.09 C 88.44 229.88 82.78 231.73 80.25 236.31 C 78.75 239.80 84.25 242.64 87.04 241.07 C 94.74 240.74 101.16 235.13 108.74 234.28 C 113.56 236.21 111.12 244.00 116.24 246.20 C 114.75 247.70 113.21 249.14 111.62 250.53 C 107.68 244.31 102.11 251.92 97.87 253.83 C 94.74 254.86 91.53 255.69 88.27 256.23 C 87.54 256.23 86.08 256.22 85.35 256.22 C 77.51 251.34 67.13 255.00 58.41 254.41 C 52.90 255.22 46.53 253.59 41.76 257.23 C 46.89 261.22 59.80 254.28 60.07 264.04 C 55.10 263.96 49.97 260.92 45.13 263.16 C 44.85 266.26 48.90 273.36 41.43 269.54 C 36.23 269.40 33.89 264.97 32.19 260.79 C 28.76 255.91 21.87 256.46 17.01 253.95 C 11.62 250.90 6.95 245.48 0.00 246.84 L 0.00 243.00 C 9.35 243.22 18.70 242.94 28.02 242.25 C 34.02 240.71 39.26 247.75 44.95 244.81 C 45.17 240.44 39.98 238.40 38.20 234.82 C 39.09 232.40 41.06 230.58 42.14 228.25 C 32.69 226.97 23.08 223.74 13.59 226.50 C 5.61 229.92 6.88 218.50 7.12 214.32 C 12.13 208.67 21.17 211.07 27.73 208.74 C 30.38 205.44 27.06 201.77 27.01 198.21 C 30.91 193.99 36.39 200.57 34.30 204.99 C 40.43 205.41 47.13 201.18 52.68 205.35 C 55.06 207.75 52.07 210.44 51.87 213.07 C 57.71 211.47 65.76 209.13 69.10 215.96 C 66.78 219.85 62.88 222.63 61.07 226.85 C 65.13 230.63 75.86 234.06 77.97 226.94 C 75.53 219.71 67.68 213.85 70.13 205.32 C 74.18 200.71 81.52 202.49 86.58 199.76 C 88.00 195.38 89.28 189.97 94.25 188.35 Z" />
<path fill="#8d455b" d=" M 148.74 206.70 C 153.05 203.53 158.71 205.49 163.62 205.21 C 175.83 207.21 188.35 205.15 200.66 206.24 C 203.10 207.28 200.81 211.30 198.72 211.75 C 189.36 210.96 179.96 210.92 170.57 210.89 C 165.77 208.56 160.27 209.21 155.10 208.60 C 152.97 208.01 150.85 207.35 148.74 206.70 Z" />
<path fill="#ad7788" d=" M 129.87 223.44 C 135.66 217.30 140.74 210.24 148.74 206.70 C 150.85 207.35 152.97 208.01 155.10 208.60 C 149.99 213.51 146.65 219.91 142.79 225.79 C 140.50 229.05 143.74 232.81 146.36 234.70 C 154.32 235.13 162.29 235.54 170.24 236.27 C 165.28 241.02 156.88 237.66 152.15 242.25 C 150.91 245.48 154.78 245.31 156.83 246.15 C 156.70 258.64 153.82 273.81 163.09 283.98 C 161.12 283.96 159.19 283.56 157.28 283.12 C 154.84 282.46 152.38 281.85 149.95 281.16 C 148.19 276.31 145.91 271.54 145.42 266.34 C 145.87 260.01 154.80 257.24 153.48 250.61 C 152.85 245.45 146.82 245.70 143.23 243.70 C 138.74 239.96 138.42 233.63 134.47 229.60 C 133.37 228.35 132.26 227.12 131.16 225.88 C 130.72 225.07 130.29 224.26 129.87 223.44 Z" />
<path fill="#c27b8c" d=" M 142.79 225.79 C 146.65 219.91 149.99 213.51 155.10 208.60 C 160.27 209.21 165.77 208.56 170.57 210.89 C 168.86 216.06 159.43 216.34 161.19 222.69 C 167.31 227.17 175.66 223.19 182.11 226.14 C 181.19 231.92 174.25 233.01 170.24 236.27 C 162.29 235.54 154.32 235.13 146.36 234.70 C 143.74 232.81 140.50 229.05 142.79 225.79 Z" />
<path fill="#94606c" d=" M 206.84 213.77 C 211.28 212.08 218.33 211.98 218.47 218.20 C 217.78 220.48 216.93 222.72 215.83 224.84 C 214.24 226.63 212.88 228.62 211.71 230.71 C 209.68 233.03 207.67 235.37 205.77 237.79 C 201.18 241.37 196.23 244.44 190.97 246.92 C 194.45 237.02 177.09 241.09 171.73 239.83 C 176.12 233.84 184.57 238.29 190.30 236.27 C 199.05 231.04 196.45 216.67 206.84 213.77 Z" />
<path fill="#d4adc4" d=" M 124.14 214.78 C 124.54 215.11 125.33 215.76 125.73 216.09 C 126.38 217.11 127.02 218.14 127.63 219.19 C 128.36 220.62 129.09 222.04 129.87 223.44 C 130.29 224.26 130.72 225.07 131.16 225.88 C 128.65 240.87 129.16 256.11 128.73 271.25 C 123.88 262.82 128.32 252.61 124.90 243.76 C 124.59 242.46 124.24 241.18 123.94 239.88 C 123.96 234.61 124.03 229.35 124.02 224.08 C 124.06 220.98 124.10 217.86 124.14 214.78 Z" />
<path fill="#a4a9d3" d=" M 254.18 218.14 C 255.88 212.49 263.17 215.32 267.35 215.60 C 273.91 218.21 265.89 224.46 264.39 228.51 C 255.09 232.17 244.56 228.81 234.80 229.15 C 229.19 228.94 223.59 229.02 217.99 229.01 C 217.48 227.69 217.10 226.33 216.72 224.97 C 222.02 225.44 227.32 226.12 232.66 225.85 C 235.73 223.80 236.54 217.74 241.59 220.56 C 245.56 221.46 252.54 223.83 254.18 218.14 Z" />
<path fill="#9ba2c9" d=" M 99.12 229.92 C 105.07 231.89 101.92 220.12 107.90 222.04 C 113.40 222.61 113.01 232.49 119.64 229.68 C 122.55 229.24 123.40 226.56 123.11 223.96 L 124.02 224.08 C 124.03 229.35 123.96 234.61 123.94 239.88 C 121.37 241.98 118.77 244.05 116.24 246.20 C 111.12 244.00 113.56 236.21 108.74 234.28 C 101.16 235.13 94.74 240.74 87.04 241.07 C 84.25 242.64 78.75 239.80 80.25 236.31 C 82.78 231.73 88.44 229.88 91.93 226.09 C 94.34 227.34 96.51 229.09 99.12 229.92 Z" />
<path fill="#ae899e" d=" M 211.71 230.71 C 212.88 228.62 214.24 226.63 215.83 224.84 L 216.72 224.97 C 217.10 226.33 217.48 227.69 217.99 229.01 C 218.49 230.27 218.93 231.59 219.73 232.71 C 220.48 233.80 221.33 234.83 222.07 235.94 C 221.33 242.69 220.69 249.95 223.78 256.25 C 223.46 258.19 223.10 260.14 222.35 261.96 C 221.73 260.82 220.86 259.86 219.88 259.03 C 215.54 263.95 212.17 270.23 205.96 273.05 C 205.73 258.61 213.71 245.28 211.71 230.71 Z" />
<path fill="#c497ab" d=" M 131.16 225.88 C 132.26 227.12 133.37 228.35 134.47 229.60 C 135.51 245.77 133.64 262.35 139.14 277.93 C 138.42 277.93 136.97 277.91 136.24 277.90 C 133.78 275.65 130.57 274.09 128.73 271.25 C 129.16 256.11 128.65 240.87 131.16 225.88 Z" />
<path fill="#8784a1" d=" M 217.99 229.01 C 223.59 229.02 229.19 228.94 234.80 229.15 C 246.95 230.16 234.11 231.12 230.70 233.13 C 236.45 235.58 242.46 237.42 248.30 239.68 C 236.93 244.73 230.25 230.24 219.73 232.71 C 218.93 231.59 218.49 230.27 217.99 229.01 Z" />
<path fill="#b28497" d=" M 134.47 229.60 C 138.42 233.63 138.74 239.96 143.23 243.70 C 146.82 245.70 152.85 245.45 153.48 250.61 C 154.80 257.24 145.87 260.01 145.42 266.34 C 145.91 271.54 148.19 276.31 149.95 281.16 C 146.28 280.34 142.73 279.07 139.14 277.93 C 133.64 262.35 135.51 245.77 134.47 229.60 Z" />
<path fill="#a57c8e" d=" M 205.77 237.79 C 207.67 235.37 209.68 233.03 211.71 230.71 C 213.71 245.28 205.73 258.61 205.96 273.05 C 199.80 276.07 193.64 279.43 186.89 280.92 C 200.02 270.02 197.20 251.28 205.77 237.79 Z" />
<path fill="#5c4f5e" d=" M 219.73 232.71 C 230.25 230.24 236.93 244.73 248.30 239.68 C 250.23 240.28 252.09 241.11 253.90 242.03 C 252.00 253.59 266.31 257.48 275.01 256.03 C 284.71 256.16 292.56 264.57 302.57 261.40 C 308.67 260.50 313.65 266.11 319.83 264.74 C 323.60 264.14 327.41 262.41 331.25 263.67 C 331.12 268.05 329.57 274.78 335.08 276.91 C 342.65 281.95 350.28 287.40 359.08 290.06 C 360.36 291.54 361.66 293.00 363.00 294.44 L 363.00 303.19 C 345.50 294.31 331.08 280.37 312.59 273.48 C 295.28 270.59 279.45 258.60 261.30 261.70 C 253.01 254.86 243.05 250.54 232.99 247.06 C 229.13 248.21 226.26 251.03 224.12 254.30 C 223.46 248.30 225.69 241.32 222.07 235.94 C 221.33 234.83 220.48 233.80 219.73 232.71 Z" />
<path fill="#8c6c7e" d=" M 222.07 235.94 C 225.69 241.32 223.46 248.30 224.12 254.30 C 224.03 254.79 223.86 255.77 223.78 256.25 C 220.69 249.95 221.33 242.69 222.07 235.94 Z" />
<path fill="#997080" d=" M 190.97 246.92 C 196.23 244.44 201.18 241.37 205.77 237.79 C 197.20 251.28 200.02 270.02 186.89 280.92 C 178.97 282.01 171.04 283.17 163.09 283.98 C 153.82 273.81 156.70 258.64 156.83 246.15 L 157.55 245.96 C 158.40 246.62 159.27 247.26 160.15 247.90 C 162.25 257.71 160.33 268.22 167.07 276.93 C 168.93 284.30 177.61 279.78 180.31 275.30 C 186.59 266.99 186.27 255.96 190.97 246.92 Z" />
<path fill="#8f7f90" d=" M 116.24 246.20 C 118.77 244.05 121.37 241.98 123.94 239.88 C 124.24 241.18 124.59 242.46 124.90 243.76 C 118.38 246.89 114.70 255.12 116.89 262.03 C 111.21 257.94 104.30 256.34 97.87 253.83 C 102.11 251.92 107.68 244.31 111.62 250.53 C 113.21 249.14 114.75 247.70 116.24 246.20 Z" />
<path fill="#85525d" d=" M 157.55 245.96 C 159.72 240.08 166.65 240.79 171.73 239.83 C 177.09 241.09 194.45 237.02 190.97 246.92 C 185.35 248.98 180.65 253.23 175.01 255.01 C 169.74 253.47 165.07 250.30 160.15 247.90 C 159.27 247.26 158.40 246.62 157.55 245.96 Z" />
<path fill="#716375" d=" M 253.90 242.03 C 257.99 243.65 262.34 244.81 266.76 244.87 C 276.62 246.43 286.53 248.35 295.76 252.28 C 301.87 258.07 310.97 256.66 317.26 252.09 C 323.97 251.44 331.93 256.24 331.25 263.67 C 327.41 262.41 323.60 264.14 319.83 264.74 C 313.65 266.11 308.67 260.50 302.57 261.40 C 292.56 264.57 284.71 256.16 275.01 256.03 C 266.31 257.48 252.00 253.59 253.90 242.03 Z" />
<path fill="#8d8eae" d=" M 266.76 244.87 C 271.99 242.09 277.93 241.02 283.70 243.01 C 289.36 244.84 295.79 243.03 301.29 244.74 C 305.20 247.04 300.43 249.79 298.83 251.97 C 298.06 252.05 296.53 252.20 295.76 252.28 C 286.53 248.35 276.62 246.43 266.76 244.87 Z" />
<path fill="#edd8ea" d=" M 116.89 262.03 C 114.70 255.12 118.38 246.89 124.90 243.76 C 128.32 252.61 123.88 262.82 128.73 271.25 C 130.57 274.09 133.78 275.65 136.24 277.90 C 131.89 278.28 127.84 276.50 123.81 275.19 C 123.17 274.49 122.53 273.78 121.91 273.07 C 120.65 270.38 119.36 267.70 117.97 265.08 C 117.60 264.06 117.23 263.05 116.89 262.03 Z" />
<path fill="#9ba0c7" d=" M 0.00 246.84 C 6.95 245.48 11.62 250.90 17.01 253.95 C 21.87 256.46 28.76 255.91 32.19 260.79 C 33.89 264.97 36.23 269.40 41.43 269.54 C 48.90 273.36 44.85 266.26 45.13 263.16 C 49.97 260.92 55.10 263.96 60.07 264.04 C 59.80 254.28 46.89 261.22 41.76 257.23 C 46.53 253.59 52.90 255.22 58.41 254.41 C 67.13 255.00 77.51 251.34 85.35 256.22 C 78.28 261.66 68.98 262.46 61.79 267.70 C 57.01 270.66 52.27 274.24 46.52 275.00 C 36.65 272.84 27.02 277.51 18.12 281.14 C 14.92 280.11 11.69 278.96 8.26 279.07 C 4.78 282.25 8.71 287.08 9.07 290.83 C 6.22 292.37 3.04 293.14 0.00 294.20 L 0.00 246.84 Z" />
<path fill="#8f6371" d=" M 175.01 255.01 C 180.65 253.23 185.35 248.98 190.97 246.92 C 186.27 255.96 186.59 266.99 180.31 275.30 C 177.61 279.78 168.93 284.30 167.07 276.93 C 160.33 268.22 162.25 257.71 160.15 247.90 C 165.07 250.30 169.74 253.47 175.01 255.01 Z" />
<path fill="#453a47" d=" M 232.99 247.06 C 243.05 250.54 253.01 254.86 261.30 261.70 C 279.45 258.60 295.28 270.59 312.59 273.48 C 331.08 280.37 345.50 294.31 363.00 303.19 L 363.00 310.43 C 348.08 299.59 329.62 297.20 312.28 292.67 C 303.59 290.61 298.47 283.22 292.76 277.21 C 284.63 277.55 281.49 286.16 281.02 293.00 C 275.87 296.18 266.26 302.67 261.92 295.04 C 258.41 291.08 267.26 286.63 262.72 283.26 C 251.22 279.61 238.84 282.22 227.07 280.10 C 220.58 285.02 214.57 294.33 204.87 291.28 C 190.40 298.34 183.27 320.98 164.54 320.45 C 123.78 326.22 82.62 321.57 41.77 319.65 C 25.78 319.14 13.81 331.05 0.00 337.10 L 0.00 333.16 C 12.28 326.93 22.98 317.85 35.87 312.81 C 44.67 308.93 54.44 310.38 63.69 308.72 C 78.33 307.12 92.10 300.64 107.00 300.87 C 117.37 299.72 126.14 293.81 134.26 287.69 C 139.46 290.16 144.53 292.97 149.92 295.03 C 160.12 297.34 171.21 299.48 181.23 295.22 C 182.98 294.57 184.66 293.76 186.35 292.99 C 201.26 286.97 215.30 276.81 222.35 261.96 C 223.10 260.14 223.46 258.19 223.78 256.25 C 223.86 255.77 224.03 254.79 224.12 254.30 C 226.26 251.03 229.13 248.21 232.99 247.06 Z" />
<path fill="#81778c" d=" M 295.76 252.28 C 296.53 252.20 298.06 252.05 298.83 251.97 C 304.97 251.92 311.11 252.05 317.26 252.09 C 310.97 256.66 301.87 258.07 295.76 252.28 Z" />
<path fill="#7e6c78" d=" M 88.27 256.23 C 91.53 255.69 94.74 254.86 97.87 253.83 C 104.30 256.34 111.21 257.94 116.89 262.03 C 117.23 263.05 117.60 264.06 117.97 265.08 C 110.87 266.56 104.84 261.96 97.93 261.96 C 92.88 261.22 92.13 268.64 87.92 269.95 C 85.06 270.26 84.42 266.48 82.76 264.79 C 84.78 262.06 86.59 259.18 88.27 256.23 Z" />
<path fill="#949bc6" d=" M 340.56 258.44 C 345.54 250.88 355.46 260.07 362.27 259.79 C 357.93 260.73 353.95 262.56 357.77 267.05 C 353.86 268.42 349.89 269.67 345.89 270.75 C 341.82 270.70 338.11 267.08 333.97 268.80 C 333.22 267.62 332.61 266.38 331.99 265.14 C 336.82 265.34 342.02 265.23 340.56 258.44 Z" />
<path fill="#8c7c8a" d=" M 85.35 256.22 C 86.08 256.22 87.54 256.23 88.27 256.23 C 86.59 259.18 84.78 262.06 82.76 264.79 C 75.14 269.83 67.95 277.17 58.17 277.21 C 59.88 274.25 60.87 270.97 61.79 267.70 C 68.98 262.46 78.28 261.66 85.35 256.22 Z" />
<path fill="#ad9bcc" d=" M 205.96 273.05 C 212.17 270.23 215.54 263.95 219.88 259.03 C 220.86 259.86 221.73 260.82 222.35 261.96 C 215.30 276.81 201.26 286.97 186.35 292.99 C 178.88 287.20 166.41 295.70 157.75 290.23 C 154.57 288.75 157.39 285.59 157.28 283.12 C 159.19 283.56 161.12 283.96 163.09 283.98 C 171.04 283.17 178.97 282.01 186.89 280.92 C 193.64 279.43 199.80 276.07 205.96 273.05 Z" />
<path fill="#735f6a" d=" M 87.92 269.95 C 92.13 268.64 92.88 261.22 97.93 261.96 C 104.84 261.96 110.87 266.56 117.97 265.08 C 119.36 267.70 120.65 270.38 121.91 273.07 C 113.15 270.49 106.13 277.26 99.00 280.95 C 92.05 282.18 85.33 285.03 78.18 285.02 C 75.97 282.21 77.53 278.24 76.83 274.96 C 59.01 282.70 40.31 289.52 25.29 302.24 C 13.37 304.13 10.45 317.55 0.00 322.19 L 0.00 315.21 C 5.52 312.05 11.45 308.97 13.41 302.36 C 16.92 298.33 17.98 290.01 24.43 289.53 C 30.61 288.68 37.42 289.27 43.08 286.14 C 48.32 283.08 54.40 282.50 58.17 277.21 C 67.95 277.17 75.14 269.83 82.76 264.79 C 84.42 266.48 85.06 270.26 87.92 269.95 Z" />
<path fill="#767086" d=" M 331.25 263.67 C 331.43 264.04 331.80 264.77 331.99 265.14 C 332.61 266.38 333.22 267.62 333.97 268.80 C 336.88 273.31 341.75 275.85 345.82 279.18 C 348.40 285.68 360.09 282.26 359.08 290.06 C 350.28 287.40 342.65 281.95 335.08 276.91 C 329.57 274.78 331.12 268.05 331.25 263.67 Z" />
<path fill="#9e8c9a" d=" M 46.52 275.00 C 52.27 274.24 57.01 270.66 61.79 267.70 C 60.87 270.97 59.88 274.25 58.17 277.21 C 54.40 282.50 48.32 283.08 43.08 286.14 C 32.92 286.05 46.26 279.87 46.52 275.00 Z" />
<path fill="#63505d" d=" M 99.00 280.95 C 106.13 277.26 113.15 270.49 121.91 273.07 C 122.53 273.78 123.17 274.49 123.81 275.19 C 125.25 277.71 126.68 280.24 128.10 282.79 C 118.88 284.05 109.46 284.14 100.41 286.43 C 90.25 290.81 81.81 300.40 70.21 300.97 C 65.41 297.13 75.38 282.88 64.01 286.00 C 52.34 290.08 39.87 294.96 32.76 305.76 C 21.29 311.78 11.78 321.08 0.00 326.47 L 0.00 322.19 C 10.45 317.55 13.37 304.13 25.29 302.24 C 40.31 289.52 59.01 282.70 76.83 274.96 C 77.53 278.24 75.97 282.21 78.18 285.02 C 85.33 285.03 92.05 282.18 99.00 280.95 Z" />
<path fill="#8e7c8b" d=" M 18.12 281.14 C 27.02 277.51 36.65 272.84 46.52 275.00 C 46.26 279.87 32.92 286.05 43.08 286.14 C 37.42 289.27 30.61 288.68 24.43 289.53 C 17.98 290.01 16.92 298.33 13.41 302.36 C 11.45 308.97 5.52 312.05 0.00 315.21 L 0.00 309.36 C 9.26 302.84 18.05 293.13 18.12 281.14 Z" />
<path fill="#b7a9db" d=" M 123.81 275.19 C 127.84 276.50 131.89 278.28 136.24 277.90 C 136.97 277.91 138.42 277.93 139.14 277.93 C 142.73 279.07 146.28 280.34 149.95 281.16 C 152.38 281.85 154.84 282.46 157.28 283.12 C 157.39 285.59 154.57 288.75 157.75 290.23 C 166.41 295.70 178.88 287.20 186.35 292.99 C 184.66 293.76 182.98 294.57 181.23 295.22 C 170.79 294.91 160.36 295.04 149.92 295.03 C 144.53 292.97 139.46 290.16 134.26 287.69 C 132.28 285.97 130.18 284.39 128.10 282.79 C 126.68 280.24 125.25 277.71 123.81 275.19 Z" />
<path fill="#3d353e" d=" M 281.02 293.00 C 281.49 286.16 284.63 277.55 292.76 277.21 C 298.47 283.22 303.59 290.61 312.28 292.67 C 329.62 297.20 348.08 299.59 363.00 310.43 L 363.00 317.40 C 351.26 312.21 339.66 300.29 326.00 306.02 C 309.14 294.92 289.48 306.38 271.55 307.49 C 260.21 307.46 248.86 308.37 238.09 312.19 C 226.32 316.04 213.74 315.55 201.85 318.82 C 171.52 328.16 139.38 324.79 108.17 327.37 C 82.86 328.94 57.48 327.28 32.16 328.25 C 19.97 330.31 12.12 342.24 0.00 344.33 L 0.00 337.10 C 13.81 331.05 25.78 319.14 41.77 319.65 C 82.62 321.57 123.78 326.22 164.54 320.45 C 183.27 320.98 190.40 298.34 204.87 291.28 C 214.57 294.33 220.58 285.02 227.07 280.10 C 238.84 282.22 251.22 279.61 262.72 283.26 C 267.26 286.63 258.41 291.08 261.92 295.04 C 266.26 302.67 275.87 296.18 281.02 293.00 Z" />
<path fill="#8b90b7" d=" M 345.82 279.18 C 351.52 278.28 357.26 277.56 363.00 276.86 L 363.00 294.44 C 361.66 293.00 360.36 291.54 359.08 290.06 C 360.09 282.26 348.40 285.68 345.82 279.18 Z" />
<path fill="#9893af" d=" M 8.26 279.07 C 11.69 278.96 14.92 280.11 18.12 281.14 C 18.05 293.13 9.26 302.84 0.00 309.36 L 0.00 294.20 C 3.04 293.14 6.22 292.37 9.07 290.83 C 8.71 287.08 4.78 282.25 8.26 279.07 Z" />
<path fill="#544450" d=" M 100.41 286.43 C 109.46 284.14 118.88 284.05 128.10 282.79 C 130.18 284.39 132.28 285.97 134.26 287.69 C 126.14 293.81 117.37 299.72 107.00 300.87 C 92.10 300.64 78.33 307.12 63.69 308.72 C 54.44 310.38 44.67 308.93 35.87 312.81 C 22.98 317.85 12.28 326.93 0.00 333.16 L 0.00 326.47 C 11.78 321.08 21.29 311.78 32.76 305.76 C 39.87 294.96 52.34 290.08 64.01 286.00 C 75.38 282.88 65.41 297.13 70.21 300.97 C 81.81 300.40 90.25 290.81 100.41 286.43 Z" />
<path fill="#7d73a0" d=" M 149.92 295.03 C 160.36 295.04 170.79 294.91 181.23 295.22 C 171.21 299.48 160.12 297.34 149.92 295.03 Z" />
<path fill="#352f36" d=" M 271.55 307.49 C 289.48 306.38 309.14 294.92 326.00 306.02 C 339.66 300.29 351.26 312.21 363.00 317.40 L 363.00 344.47 C 357.10 339.35 349.35 334.86 347.42 326.68 C 345.88 322.03 344.17 316.86 339.39 314.60 C 334.46 311.22 328.13 315.42 323.00 313.01 C 315.21 309.50 306.27 311.34 298.03 311.12 C 278.20 313.77 257.97 312.86 238.38 317.38 C 220.52 321.40 202.64 325.39 184.88 329.87 C 181.35 330.53 178.38 333.26 177.87 336.89 C 189.74 340.79 202.64 338.80 214.48 335.67 C 239.32 332.15 265.01 328.19 289.89 333.14 C 303.16 337.18 306.38 350.73 305.10 363.00 L 285.53 363.00 C 286.37 359.40 289.17 356.64 290.04 353.11 C 285.48 349.27 285.72 342.51 281.26 338.77 C 268.85 333.97 255.03 339.97 242.32 336.69 C 225.16 333.33 209.11 342.76 192.01 342.06 C 181.84 342.56 171.66 339.89 161.53 341.43 C 132.72 346.75 103.25 343.18 74.30 346.32 C 69.11 347.55 57.99 347.88 59.06 355.78 C 63.23 358.10 67.56 360.16 71.41 363.00 L 55.55 363.00 C 51.30 358.81 45.19 357.12 41.18 352.71 C 40.17 350.24 42.65 348.41 44.67 347.66 C 78.25 339.78 112.97 343.77 147.02 340.27 C 154.17 338.56 165.59 342.85 170.22 334.99 C 169.16 333.21 167.48 331.78 165.34 331.65 C 123.85 324.62 81.80 332.56 40.00 329.93 C 23.94 327.17 14.70 344.18 0.00 346.33 L 0.00 344.33 C 12.12 342.24 19.97 330.31 32.16 328.25 C 57.48 327.28 82.86 328.94 108.17 327.37 C 139.38 324.79 171.52 328.16 201.85 318.82 C 213.74 315.55 226.32 316.04 238.09 312.19 C 248.86 308.37 260.21 307.46 271.55 307.49 Z" />
<path fill="#2e292e" d=" M 238.38 317.38 C 257.97 312.86 278.20 313.77 298.03 311.12 C 306.27 311.34 315.21 309.50 323.00 313.01 C 328.13 315.42 334.46 311.22 339.39 314.60 C 344.17 316.86 345.88 322.03 347.42 326.68 C 349.35 334.86 357.10 339.35 363.00 344.47 L 363.00 363.00 L 305.10 363.00 C 306.38 350.73 303.16 337.18 289.89 333.14 C 265.01 328.19 239.32 332.15 214.48 335.67 C 202.64 338.80 189.74 340.79 177.87 336.89 C 178.38 333.26 181.35 330.53 184.88 329.87 C 202.64 325.39 220.52 321.40 238.38 317.38 Z" />
<path fill="#312a33" d=" M 40.00 329.93 C 81.80 332.56 123.85 324.62 165.34 331.65 C 167.48 331.78 169.16 333.21 170.22 334.99 C 165.59 342.85 154.17 338.56 147.02 340.27 C 112.97 343.77 78.25 339.78 44.67 347.66 C 42.65 348.41 40.17 350.24 41.18 352.71 C 45.19 357.12 51.30 358.81 55.55 363.00 L 0.00 363.00 L 0.00 346.33 C 14.70 344.18 23.94 327.17 40.00 329.93 Z" />
<path fill="#3e343c" d=" M 192.01 342.06 C 209.11 342.76 225.16 333.33 242.32 336.69 C 255.03 339.97 268.85 333.97 281.26 338.77 C 285.72 342.51 285.48 349.27 290.04 353.11 C 289.17 356.64 286.37 359.40 285.53 363.00 L 71.41 363.00 C 67.56 360.16 63.23 358.10 59.06 355.78 C 57.99 347.88 69.11 347.55 74.30 346.32 C 103.25 343.18 132.72 346.75 161.53 341.43 C 171.66 339.89 181.84 342.56 192.01 342.06 Z" />
</svg>
