<?xml version="1.0" encoding="UTF-8" standalone="no"?>
<svg
   xmlns:dc="http://purl.org/dc/elements/1.1/"
   xmlns:cc="http://creativecommons.org/ns#"
   xmlns:rdf="http://www.w3.org/1999/02/22-rdf-syntax-ns#"
   xmlns:svg="http://www.w3.org/2000/svg"
   xmlns="http://www.w3.org/2000/svg"
   xmlns:sodipodi="http://sodipodi.sourceforge.net/DTD/sodipodi-0.dtd"
   xmlns:inkscape="http://www.inkscape.org/namespaces/inkscape"
   height="67px"
   id="Layer_1"
   style="enable-background:new 0 0 67 67;"
   version="1.1"
   viewBox="0 0 67 67"
   width="67px"
   xml:space="preserve"
   sodipodi:docname="rss.svg"
   inkscape:version="0.92.1 r15371"><metadata
     id="metadata9"><rdf:RDF><cc:Work
         rdf:about=""><dc:format>image/svg+xml</dc:format><dc:type
           rdf:resource="http://purl.org/dc/dcmitype/StillImage" /></cc:Work></rdf:RDF></metadata><defs
     id="defs7" /><sodipodi:namedview
     pagecolor="#ffffff"
     bordercolor="#666666"
     borderopacity="1"
     objecttolerance="10"
     gridtolerance="10"
     guidetolerance="10"
     inkscape:pageopacity="0"
     inkscape:pageshadow="2"
     inkscape:window-width="1920"
     inkscape:window-height="1047"
     id="namedview5"
     showgrid="false"
     inkscape:zoom="7.0447761"
     inkscape:cx="32.054927"
     inkscape:cy="24.817684"
     inkscape:window-x="0"
     inkscape:window-y="0"
     inkscape:window-maximized="1"
     inkscape:current-layer="Layer_1" /><path
     d="m 45.98439,47.191546 h 5.701689 c 0,-16.346555 -13.297983,-29.653475 -29.642303,-29.653475 v 5.68605 c 13.197443,-0.0011 23.940614,10.753225 23.940614,23.967425 z m -19.993893,0.01 c 2.186169,0 3.952307,-1.756084 3.952307,-3.933316 0,-2.164944 -1.766138,-3.941136 -3.952307,-3.941136 -2.177233,0 -3.946721,1.776192 -3.946721,3.941136 -0.0011,2.177232 1.768372,3.933316 3.946721,3.933316 z m 9.916515,-0.0078 v 0 h 5.708391 c 0,-10.795675 -8.782656,-19.577213 -19.572745,-19.577213 v 5.683814 c 3.70096,0 7.18185,1.446648 9.801454,4.069603 2.618487,2.614019 4.0629,6.109431 4.0629,9.823796 z M 33.513062,67 C 15.004916,67 0,51.995084 0,33.486938 0,14.977673 15.004916,-0.02612469 33.513062,-0.02612469 c 18.508148,0 33.513062,15.00379769 33.513062,33.51306269 C 67.026124,51.995084 52.02121,67 33.513062,67 Z"
     style="clip-rule:evenodd;fill:#e19126;fill-rule:evenodd;stroke-width:1.11710203"
     id="path2"
     inkscape:connector-curvature="0" /></svg>